<svg width="32" height="22" viewBox="0 0 32 22" fill="none" xmlns="http://www.w3.org/2000/svg">
<path d="M28.6667 0.332031H3.33333C1.496 0.332031 0 1.82803 0 3.66536V18.332C0 20.1694 1.496 21.6654 3.33333 21.6654H28.6667C30.504 21.6654 32 20.1694 32 18.332V3.66536C32 1.82803 30.504 0.332031 28.6667 0.332031ZM11.76 12.1774L3.76 18.844C3.636 18.948 3.484 18.9987 3.33333 18.9987C3.14133 18.9987 2.952 18.9174 2.82 18.7587C2.584 18.476 2.62267 18.0547 2.90533 17.8187L10.9053 11.152C11.188 10.9174 11.6093 10.956 11.8453 11.2374C12.0813 11.5214 12.0427 11.9427 11.76 12.1774ZM16 12.3547C15.2667 12.3547 14.532 12.136 13.892 11.6974L2.95733 4.21603C2.65333 4.00803 2.576 3.59336 2.78267 3.28936C2.98933 2.98536 3.404 2.9067 3.70933 3.11603L14.644 10.5974C15.4667 11.16 16.5307 11.16 17.3547 10.5974L28.2893 3.11603C28.5947 2.90936 29.0093 2.98536 29.216 3.28936C29.424 3.59336 29.3467 4.00803 29.0427 4.21603L18.108 11.6974C17.468 12.136 16.7333 12.3547 16 12.3547ZM29.1787 18.7587C29.0467 18.9174 28.8573 18.9987 28.6667 18.9987C28.516 18.9987 28.3653 18.948 28.24 18.844L20.24 12.1774C19.9573 11.9414 19.9187 11.5214 20.1547 11.2374C20.3907 10.956 20.8107 10.9174 21.0947 11.152L29.0947 17.8187C29.376 18.0547 29.4147 18.476 29.1787 18.7587Z" fill="#131545"/>
</svg>
