<svg width="26" height="26" viewBox="0 0 26 26" fill="none" xmlns="http://www.w3.org/2000/svg">
<path d="M23.7122 17.012C22.1509 17.012 20.6202 16.768 19.1682 16.288C18.4722 16.052 17.6176 16.268 17.1909 16.7067L14.3136 18.8787C11.0122 17.1174 8.90157 15.0054 7.16424 11.7307L9.27757 8.92403C9.81091 8.3907 10.0016 7.61336 9.77224 6.88403C9.29091 5.4227 9.04557 3.89203 9.04557 2.33203C9.04557 1.22936 8.14824 0.332031 7.04557 0.332031H2.37891C1.27624 0.332031 0.378906 1.22936 0.378906 2.33203C0.378906 15.1974 10.8469 25.6654 23.7122 25.6654C24.8149 25.6654 25.7122 24.768 25.7122 23.6654V19.012C25.7122 17.9094 24.8149 17.012 23.7122 17.012Z" fill="#131545"/>
</svg>
